<svg xmlns="http://www.w3.org/2000/svg" viewBox="0 0 1200 900"><defs><linearGradient id="g" x1="0" y1="0" x2="1" y2="1"><stop stop-color="#081521"/><stop offset=".6" stop-color="#11364d"/><stop offset="1" stop-color="#6557aa"/></linearGradient><filter id="d"><feDropShadow dx="0" dy="20" stdDeviation="24" flood-color="#02101b" flood-opacity=".35"/></filter></defs><rect width="1200" height="900" fill="url(#g)"/><circle cx="990" cy="110" r="210" fill="#5bcdf0" opacity=".15"/><g stroke="#70d4f0" stroke-width="7" stroke-linecap="round" opacity=".5"><path d="M265 250C420 250 420 370 575 370S730 500 900 500"/><path d="M265 610C420 610 430 520 575 520S730 650 900 650"/></g><g filter="url(#d)"><g transform="translate(120 170)"><rect width="290" height="190" rx="30" fill="#fff"/><circle cx="65" cy="65" r="28" fill="#5bcdf0"/><rect x="115" y="48" width="130" height="17" rx="9" fill="#294c63"/><rect x="115" y="85" width="95" height="12" rx="6" fill="#92a9b7"/></g><g transform="translate(455 290)"><rect width="290" height="190" rx="30" fill="#0c1c2b" stroke="#67d0ef" stroke-opacity=".45"/><circle cx="65" cy="65" r="28" fill="#6758ac"/><rect x="115" y="48" width="130" height="17" rx="9" fill="#fff" opacity=".85"/><rect x="115" y="85" width="95" height="12" rx="6" fill="#fff" opacity=".4"/></g><g transform="translate(790 420)"><rect width="290" height="190" rx="30" fill="#fff"/><circle cx="65" cy="65" r="28" fill="#5bcdf0"/><rect x="115" y="48" width="130" height="17" rx="9" fill="#294c63"/><rect x="115" y="85" width="95" height="12" rx="6" fill="#92a9b7"/></g></g></svg>